<mxfile host="app.diagrams.net" modified="2020-08-17T02:54:16.490Z" agent="5.0 (Windows NT 10.0; Win64; x64) AppleWebKit/537.36 (KHTML, like Gecko) Chrome/84.0.4147.125 Safari/537.36" etag="1jit-3ISVuiDUzEfSk4z" version="13.6.2" type="github">
  <diagram id="TkFhCfiameQCy9AZxE5S" name="Page-1">
    <mxGraphModel dx="868" dy="482" grid="1" gridSize="10" guides="1" tooltips="1" connect="1" arrows="1" fold="1" page="1" pageScale="1" pageWidth="3300" pageHeight="2339" math="0" shadow="0">
      <root>
        <mxCell id="0" />
        <mxCell id="1" parent="0" />
        <mxCell id="nq9fMI-_b_Ov7HE07HDS-4" style="edgeStyle=orthogonalEdgeStyle;curved=1;rounded=0;orthogonalLoop=1;jettySize=auto;html=1;" parent="1" source="nq9fMI-_b_Ov7HE07HDS-1" target="nq9fMI-_b_Ov7HE07HDS-3" edge="1">
          <mxGeometry relative="1" as="geometry" />
        </mxCell>
        <mxCell id="nq9fMI-_b_Ov7HE07HDS-6" style="edgeStyle=orthogonalEdgeStyle;curved=1;rounded=0;orthogonalLoop=1;jettySize=auto;html=1;" parent="1" source="nq9fMI-_b_Ov7HE07HDS-1" target="nq9fMI-_b_Ov7HE07HDS-5" edge="1">
          <mxGeometry relative="1" as="geometry" />
        </mxCell>
        <mxCell id="nq9fMI-_b_Ov7HE07HDS-16" style="edgeStyle=orthogonalEdgeStyle;curved=1;rounded=0;orthogonalLoop=1;jettySize=auto;html=1;" parent="1" source="nq9fMI-_b_Ov7HE07HDS-1" target="nq9fMI-_b_Ov7HE07HDS-14" edge="1">
          <mxGeometry relative="1" as="geometry" />
        </mxCell>
        <mxCell id="nq9fMI-_b_Ov7HE07HDS-17" style="edgeStyle=orthogonalEdgeStyle;curved=1;rounded=0;orthogonalLoop=1;jettySize=auto;html=1;entryX=0.5;entryY=1;entryDx=0;entryDy=0;" parent="1" source="nq9fMI-_b_Ov7HE07HDS-1" target="nq9fMI-_b_Ov7HE07HDS-13" edge="1">
          <mxGeometry relative="1" as="geometry" />
        </mxCell>
        <mxCell id="nq9fMI-_b_Ov7HE07HDS-18" style="edgeStyle=orthogonalEdgeStyle;curved=1;rounded=0;orthogonalLoop=1;jettySize=auto;html=1;" parent="1" source="nq9fMI-_b_Ov7HE07HDS-1" target="nq9fMI-_b_Ov7HE07HDS-5" edge="1">
          <mxGeometry relative="1" as="geometry" />
        </mxCell>
        <mxCell id="nq9fMI-_b_Ov7HE07HDS-19" style="edgeStyle=orthogonalEdgeStyle;curved=1;rounded=0;orthogonalLoop=1;jettySize=auto;html=1;entryX=0.372;entryY=1.031;entryDx=0;entryDy=0;entryPerimeter=0;" parent="1" source="nq9fMI-_b_Ov7HE07HDS-1" target="nq9fMI-_b_Ov7HE07HDS-7" edge="1">
          <mxGeometry relative="1" as="geometry" />
        </mxCell>
        <mxCell id="nq9fMI-_b_Ov7HE07HDS-20" style="edgeStyle=orthogonalEdgeStyle;curved=1;rounded=0;orthogonalLoop=1;jettySize=auto;html=1;" parent="1" source="nq9fMI-_b_Ov7HE07HDS-1" target="nq9fMI-_b_Ov7HE07HDS-9" edge="1">
          <mxGeometry relative="1" as="geometry" />
        </mxCell>
        <mxCell id="nq9fMI-_b_Ov7HE07HDS-21" style="edgeStyle=orthogonalEdgeStyle;curved=1;rounded=0;orthogonalLoop=1;jettySize=auto;html=1;entryX=0.631;entryY=1.06;entryDx=0;entryDy=0;entryPerimeter=0;" parent="1" source="nq9fMI-_b_Ov7HE07HDS-1" target="nq9fMI-_b_Ov7HE07HDS-11" edge="1">
          <mxGeometry relative="1" as="geometry" />
        </mxCell>
        <mxCell id="nq9fMI-_b_Ov7HE07HDS-22" style="edgeStyle=orthogonalEdgeStyle;curved=1;rounded=0;orthogonalLoop=1;jettySize=auto;html=1;" parent="1" source="nq9fMI-_b_Ov7HE07HDS-1" target="nq9fMI-_b_Ov7HE07HDS-10" edge="1">
          <mxGeometry relative="1" as="geometry" />
        </mxCell>
        <mxCell id="nq9fMI-_b_Ov7HE07HDS-23" style="edgeStyle=orthogonalEdgeStyle;curved=1;rounded=0;orthogonalLoop=1;jettySize=auto;html=1;" parent="1" source="nq9fMI-_b_Ov7HE07HDS-1" target="nq9fMI-_b_Ov7HE07HDS-8" edge="1">
          <mxGeometry relative="1" as="geometry" />
        </mxCell>
        <mxCell id="nq9fMI-_b_Ov7HE07HDS-24" style="edgeStyle=orthogonalEdgeStyle;curved=1;rounded=0;orthogonalLoop=1;jettySize=auto;html=1;entryX=1;entryY=1;entryDx=0;entryDy=0;" parent="1" source="nq9fMI-_b_Ov7HE07HDS-1" target="nq9fMI-_b_Ov7HE07HDS-9" edge="1">
          <mxGeometry relative="1" as="geometry" />
        </mxCell>
        <mxCell id="nq9fMI-_b_Ov7HE07HDS-25" style="edgeStyle=orthogonalEdgeStyle;curved=1;rounded=0;orthogonalLoop=1;jettySize=auto;html=1;exitX=0.5;exitY=0;exitDx=0;exitDy=0;" parent="1" source="nq9fMI-_b_Ov7HE07HDS-1" target="nq9fMI-_b_Ov7HE07HDS-12" edge="1">
          <mxGeometry relative="1" as="geometry" />
        </mxCell>
        <mxCell id="nq9fMI-_b_Ov7HE07HDS-1" value="datos personales" style="whiteSpace=wrap;html=1;align=center;" parent="1" vertex="1">
          <mxGeometry x="90" y="220" width="100" height="40" as="geometry" />
        </mxCell>
        <mxCell id="nq9fMI-_b_Ov7HE07HDS-3" value="&lt;b&gt;&lt;u&gt;dni&lt;/u&gt;&lt;/b&gt;" style="ellipse;whiteSpace=wrap;html=1;align=center;" parent="1" vertex="1">
          <mxGeometry x="140" y="110" width="100" height="40" as="geometry" />
        </mxCell>
        <mxCell id="nq9fMI-_b_Ov7HE07HDS-7" value="materno" style="ellipse;whiteSpace=wrap;html=1;align=center;" parent="1" vertex="1">
          <mxGeometry x="130" y="60" width="100" height="40" as="geometry" />
        </mxCell>
        <mxCell id="nq9fMI-_b_Ov7HE07HDS-8" value="telefono" style="ellipse;whiteSpace=wrap;html=1;align=center;" parent="1" vertex="1">
          <mxGeometry x="40" y="50" width="100" height="40" as="geometry" />
        </mxCell>
        <mxCell id="nq9fMI-_b_Ov7HE07HDS-9" value="genero" style="ellipse;whiteSpace=wrap;html=1;align=center;" parent="1" vertex="1">
          <mxGeometry x="120" y="30" width="100" height="40" as="geometry" />
        </mxCell>
        <mxCell id="nq9fMI-_b_Ov7HE07HDS-5" value="ruc" style="ellipse;whiteSpace=wrap;html=1;align=center;" parent="1" vertex="1">
          <mxGeometry x="60" y="90" width="100" height="40" as="geometry" />
        </mxCell>
        <mxCell id="nq9fMI-_b_Ov7HE07HDS-12" value="paterno" style="ellipse;whiteSpace=wrap;html=1;align=center;" parent="1" vertex="1">
          <mxGeometry x="200" y="80" width="100" height="40" as="geometry" />
        </mxCell>
        <mxCell id="nq9fMI-_b_Ov7HE07HDS-13" value="nombre" style="ellipse;whiteSpace=wrap;html=1;align=center;" parent="1" vertex="1">
          <mxGeometry x="80" y="130" width="100" height="40" as="geometry" />
        </mxCell>
        <mxCell id="nq9fMI-_b_Ov7HE07HDS-14" value="nacionalidad" style="ellipse;whiteSpace=wrap;html=1;align=center;" parent="1" vertex="1">
          <mxGeometry x="160" y="140" width="100" height="40" as="geometry" />
        </mxCell>
        <mxCell id="nq9fMI-_b_Ov7HE07HDS-11" value="fNacimiento" style="ellipse;whiteSpace=wrap;html=1;align=center;" parent="1" vertex="1">
          <mxGeometry x="10" y="120" width="100" height="40" as="geometry" />
        </mxCell>
        <mxCell id="nq9fMI-_b_Ov7HE07HDS-10" value="celular" style="ellipse;whiteSpace=wrap;html=1;align=center;" parent="1" vertex="1">
          <mxGeometry y="80" width="100" height="40" as="geometry" />
        </mxCell>
        <mxCell id="nq9fMI-_b_Ov7HE07HDS-15" value="correo" style="ellipse;whiteSpace=wrap;html=1;align=center;" parent="1" vertex="1">
          <mxGeometry x="200" y="40" width="100" height="40" as="geometry" />
        </mxCell>
        <mxCell id="nq9fMI-_b_Ov7HE07HDS-29" style="edgeStyle=orthogonalEdgeStyle;curved=1;rounded=0;orthogonalLoop=1;jettySize=auto;html=1;" parent="1" source="nq9fMI-_b_Ov7HE07HDS-26" target="nq9fMI-_b_Ov7HE07HDS-27" edge="1">
          <mxGeometry relative="1" as="geometry" />
        </mxCell>
        <mxCell id="nq9fMI-_b_Ov7HE07HDS-30" style="edgeStyle=orthogonalEdgeStyle;curved=1;rounded=0;orthogonalLoop=1;jettySize=auto;html=1;entryX=0.619;entryY=1.016;entryDx=0;entryDy=0;entryPerimeter=0;" parent="1" source="nq9fMI-_b_Ov7HE07HDS-26" target="nq9fMI-_b_Ov7HE07HDS-28" edge="1">
          <mxGeometry relative="1" as="geometry" />
        </mxCell>
        <mxCell id="nq9fMI-_b_Ov7HE07HDS-26" value="ubig_departemento" style="rounded=1;arcSize=10;whiteSpace=wrap;html=1;align=center;" parent="1" vertex="1">
          <mxGeometry x="350" y="95" width="120" height="40" as="geometry" />
        </mxCell>
        <mxCell id="nq9fMI-_b_Ov7HE07HDS-27" value="dep_nombre" style="ellipse;whiteSpace=wrap;html=1;align=center;" parent="1" vertex="1">
          <mxGeometry x="410" y="25" width="100" height="40" as="geometry" />
        </mxCell>
        <mxCell id="nq9fMI-_b_Ov7HE07HDS-28" value="&lt;b&gt;&lt;u&gt;dep_id&lt;/u&gt;&lt;/b&gt;" style="ellipse;whiteSpace=wrap;html=1;align=center;" parent="1" vertex="1">
          <mxGeometry x="320" y="25" width="100" height="40" as="geometry" />
        </mxCell>
        <mxCell id="nq9fMI-_b_Ov7HE07HDS-31" style="edgeStyle=orthogonalEdgeStyle;curved=1;rounded=0;orthogonalLoop=1;jettySize=auto;html=1;" parent="1" source="nq9fMI-_b_Ov7HE07HDS-33" target="nq9fMI-_b_Ov7HE07HDS-34" edge="1">
          <mxGeometry relative="1" as="geometry" />
        </mxCell>
        <mxCell id="nq9fMI-_b_Ov7HE07HDS-32" style="edgeStyle=orthogonalEdgeStyle;curved=1;rounded=0;orthogonalLoop=1;jettySize=auto;html=1;entryX=0.619;entryY=1.016;entryDx=0;entryDy=0;entryPerimeter=0;" parent="1" source="nq9fMI-_b_Ov7HE07HDS-33" target="nq9fMI-_b_Ov7HE07HDS-35" edge="1">
          <mxGeometry relative="1" as="geometry" />
        </mxCell>
        <mxCell id="nq9fMI-_b_Ov7HE07HDS-57" style="edgeStyle=orthogonalEdgeStyle;rounded=0;orthogonalLoop=1;jettySize=auto;html=1;entryX=1;entryY=0.5;entryDx=0;entryDy=0;startArrow=ERzeroToOne;startFill=1;endArrow=ERoneToMany;endFill=0;exitX=0.5;exitY=1;exitDx=0;exitDy=0;" parent="1" source="nq9fMI-_b_Ov7HE07HDS-33" target="nq9fMI-_b_Ov7HE07HDS-38" edge="1">
          <mxGeometry relative="1" as="geometry" />
        </mxCell>
        <mxCell id="nq9fMI-_b_Ov7HE07HDS-33" value="ubig_provincia" style="rounded=1;arcSize=10;whiteSpace=wrap;html=1;align=center;" parent="1" vertex="1">
          <mxGeometry x="550" y="95" width="120" height="40" as="geometry" />
        </mxCell>
        <mxCell id="nq9fMI-_b_Ov7HE07HDS-34" value="pro_nombre" style="ellipse;whiteSpace=wrap;html=1;align=center;" parent="1" vertex="1">
          <mxGeometry x="610" y="25" width="100" height="40" as="geometry" />
        </mxCell>
        <mxCell id="nq9fMI-_b_Ov7HE07HDS-35" value="&lt;b&gt;&lt;u&gt;pro_id&lt;/u&gt;&lt;/b&gt;" style="ellipse;whiteSpace=wrap;html=1;align=center;" parent="1" vertex="1">
          <mxGeometry x="520" y="25" width="100" height="40" as="geometry" />
        </mxCell>
        <mxCell id="nq9fMI-_b_Ov7HE07HDS-36" style="edgeStyle=orthogonalEdgeStyle;curved=1;rounded=0;orthogonalLoop=1;jettySize=auto;html=1;" parent="1" source="nq9fMI-_b_Ov7HE07HDS-38" target="nq9fMI-_b_Ov7HE07HDS-39" edge="1">
          <mxGeometry relative="1" as="geometry" />
        </mxCell>
        <mxCell id="nq9fMI-_b_Ov7HE07HDS-37" style="edgeStyle=orthogonalEdgeStyle;curved=1;rounded=0;orthogonalLoop=1;jettySize=auto;html=1;entryX=0.619;entryY=1.016;entryDx=0;entryDy=0;entryPerimeter=0;" parent="1" source="nq9fMI-_b_Ov7HE07HDS-38" target="nq9fMI-_b_Ov7HE07HDS-40" edge="1">
          <mxGeometry relative="1" as="geometry" />
        </mxCell>
        <mxCell id="nq9fMI-_b_Ov7HE07HDS-56" style="edgeStyle=orthogonalEdgeStyle;rounded=0;orthogonalLoop=1;jettySize=auto;html=1;exitX=0;exitY=0.5;exitDx=0;exitDy=0;entryX=1;entryY=0.5;entryDx=0;entryDy=0;endArrow=ERzeroToOne;endFill=1;startArrow=ERoneToMany;startFill=0;" parent="1" source="nq9fMI-_b_Ov7HE07HDS-33" target="nq9fMI-_b_Ov7HE07HDS-26" edge="1">
          <mxGeometry relative="1" as="geometry" />
        </mxCell>
        <mxCell id="nq9fMI-_b_Ov7HE07HDS-75" style="edgeStyle=orthogonalEdgeStyle;rounded=0;orthogonalLoop=1;jettySize=auto;html=1;startArrow=ERmandOne;startFill=0;endArrow=ERoneToMany;endFill=0;entryX=1;entryY=0.5;entryDx=0;entryDy=0;exitX=0;exitY=0.5;exitDx=0;exitDy=0;" parent="1" source="nq9fMI-_b_Ov7HE07HDS-38" target="nq9fMI-_b_Ov7HE07HDS-1" edge="1">
          <mxGeometry relative="1" as="geometry">
            <mxPoint x="350" y="280" as="targetPoint" />
          </mxGeometry>
        </mxCell>
        <mxCell id="nq9fMI-_b_Ov7HE07HDS-77" style="edgeStyle=orthogonalEdgeStyle;rounded=0;orthogonalLoop=1;jettySize=auto;html=1;entryX=0;entryY=0.5;entryDx=0;entryDy=0;startArrow=ERmandOne;startFill=0;endArrow=ERoneToMany;endFill=0;exitX=0.5;exitY=1;exitDx=0;exitDy=0;" parent="1" source="nq9fMI-_b_Ov7HE07HDS-38" target="nq9fMI-_b_Ov7HE07HDS-43" edge="1">
          <mxGeometry relative="1" as="geometry" />
        </mxCell>
        <mxCell id="nq9fMI-_b_Ov7HE07HDS-38" value="ubig_distrito" style="rounded=1;arcSize=10;whiteSpace=wrap;html=1;align=center;" parent="1" vertex="1">
          <mxGeometry x="350" y="220" width="120" height="40" as="geometry" />
        </mxCell>
        <mxCell id="nq9fMI-_b_Ov7HE07HDS-39" value="dis_nombre" style="ellipse;whiteSpace=wrap;html=1;align=center;" parent="1" vertex="1">
          <mxGeometry x="410" y="150" width="100" height="40" as="geometry" />
        </mxCell>
        <mxCell id="nq9fMI-_b_Ov7HE07HDS-40" value="&lt;b&gt;&lt;u&gt;dis_id&lt;/u&gt;&lt;/b&gt;" style="ellipse;whiteSpace=wrap;html=1;align=center;" parent="1" vertex="1">
          <mxGeometry x="320" y="150" width="100" height="40" as="geometry" />
        </mxCell>
        <mxCell id="nq9fMI-_b_Ov7HE07HDS-41" style="edgeStyle=orthogonalEdgeStyle;curved=1;rounded=0;orthogonalLoop=1;jettySize=auto;html=1;" parent="1" source="nq9fMI-_b_Ov7HE07HDS-43" target="nq9fMI-_b_Ov7HE07HDS-44" edge="1">
          <mxGeometry relative="1" as="geometry" />
        </mxCell>
        <mxCell id="nq9fMI-_b_Ov7HE07HDS-42" style="edgeStyle=orthogonalEdgeStyle;curved=1;rounded=0;orthogonalLoop=1;jettySize=auto;html=1;entryX=0.619;entryY=1.016;entryDx=0;entryDy=0;entryPerimeter=0;" parent="1" source="nq9fMI-_b_Ov7HE07HDS-43" target="nq9fMI-_b_Ov7HE07HDS-45" edge="1">
          <mxGeometry relative="1" as="geometry" />
        </mxCell>
        <mxCell id="nq9fMI-_b_Ov7HE07HDS-48" style="edgeStyle=orthogonalEdgeStyle;curved=1;rounded=0;orthogonalLoop=1;jettySize=auto;html=1;" parent="1" source="nq9fMI-_b_Ov7HE07HDS-43" target="nq9fMI-_b_Ov7HE07HDS-46" edge="1">
          <mxGeometry relative="1" as="geometry" />
        </mxCell>
        <mxCell id="nq9fMI-_b_Ov7HE07HDS-49" style="edgeStyle=orthogonalEdgeStyle;curved=1;rounded=0;orthogonalLoop=1;jettySize=auto;html=1;" parent="1" source="nq9fMI-_b_Ov7HE07HDS-43" target="nq9fMI-_b_Ov7HE07HDS-47" edge="1">
          <mxGeometry relative="1" as="geometry" />
        </mxCell>
        <mxCell id="nq9fMI-_b_Ov7HE07HDS-43" value="laboral" style="rounded=1;arcSize=10;whiteSpace=wrap;html=1;align=center;" parent="1" vertex="1">
          <mxGeometry x="490" y="360" width="120" height="40" as="geometry" />
        </mxCell>
        <mxCell id="nq9fMI-_b_Ov7HE07HDS-44" value="pro_detalle" style="ellipse;whiteSpace=wrap;html=1;align=center;" parent="1" vertex="1">
          <mxGeometry x="550" y="290" width="100" height="40" as="geometry" />
        </mxCell>
        <mxCell id="nq9fMI-_b_Ov7HE07HDS-45" value="&lt;b&gt;&lt;u&gt;lab_id&lt;/u&gt;&lt;/b&gt;" style="ellipse;whiteSpace=wrap;html=1;align=center;" parent="1" vertex="1">
          <mxGeometry x="460" y="290" width="100" height="40" as="geometry" />
        </mxCell>
        <mxCell id="nq9fMI-_b_Ov7HE07HDS-46" value="pro_tele" style="ellipse;whiteSpace=wrap;html=1;align=center;" parent="1" vertex="1">
          <mxGeometry x="570" y="250" width="100" height="40" as="geometry" />
        </mxCell>
        <mxCell id="nq9fMI-_b_Ov7HE07HDS-47" value="pro_direccion" style="ellipse;whiteSpace=wrap;html=1;align=center;" parent="1" vertex="1">
          <mxGeometry x="480" y="250" width="100" height="40" as="geometry" />
        </mxCell>
        <mxCell id="nq9fMI-_b_Ov7HE07HDS-63" style="edgeStyle=orthogonalEdgeStyle;curved=1;rounded=0;orthogonalLoop=1;jettySize=auto;html=1;" parent="1" source="nq9fMI-_b_Ov7HE07HDS-65" target="nq9fMI-_b_Ov7HE07HDS-66" edge="1">
          <mxGeometry relative="1" as="geometry" />
        </mxCell>
        <mxCell id="nq9fMI-_b_Ov7HE07HDS-64" style="edgeStyle=orthogonalEdgeStyle;curved=1;rounded=0;orthogonalLoop=1;jettySize=auto;html=1;entryX=0.619;entryY=1.016;entryDx=0;entryDy=0;entryPerimeter=0;" parent="1" source="nq9fMI-_b_Ov7HE07HDS-65" target="nq9fMI-_b_Ov7HE07HDS-67" edge="1">
          <mxGeometry relative="1" as="geometry" />
        </mxCell>
        <mxCell id="nq9fMI-_b_Ov7HE07HDS-69" style="edgeStyle=orthogonalEdgeStyle;rounded=0;orthogonalLoop=1;jettySize=auto;html=1;entryX=0.5;entryY=1;entryDx=0;entryDy=0;startArrow=ERmandOne;startFill=0;endArrow=ERoneToMany;endFill=0;exitX=0;exitY=0.5;exitDx=0;exitDy=0;" parent="1" source="nq9fMI-_b_Ov7HE07HDS-65" target="nq9fMI-_b_Ov7HE07HDS-1" edge="1">
          <mxGeometry relative="1" as="geometry" />
        </mxCell>
        <mxCell id="nq9fMI-_b_Ov7HE07HDS-73" style="edgeStyle=orthogonalEdgeStyle;rounded=0;orthogonalLoop=1;jettySize=auto;html=1;startArrow=ERmandOne;startFill=0;endArrow=ERmandOne;endFill=0;" parent="1" source="nq9fMI-_b_Ov7HE07HDS-65" edge="1">
          <mxGeometry relative="1" as="geometry">
            <mxPoint x="390" y="260" as="targetPoint" />
          </mxGeometry>
        </mxCell>
        <mxCell id="nq9fMI-_b_Ov7HE07HDS-76" style="edgeStyle=orthogonalEdgeStyle;rounded=0;orthogonalLoop=1;jettySize=auto;html=1;startArrow=ERoneToMany;startFill=0;endArrow=ERmandOne;endFill=0;entryX=0.5;entryY=1;entryDx=0;entryDy=0;exitX=0.75;exitY=1;exitDx=0;exitDy=0;" parent="1" source="nq9fMI-_b_Ov7HE07HDS-1" target="nq9fMI-_b_Ov7HE07HDS-43" edge="1">
          <mxGeometry relative="1" as="geometry">
            <mxPoint x="200" y="670.8333333333334" as="targetPoint" />
          </mxGeometry>
        </mxCell>
        <mxCell id="nq9fMI-_b_Ov7HE07HDS-65" value="sitio actual" style="rounded=1;arcSize=10;whiteSpace=wrap;html=1;align=center;" parent="1" vertex="1">
          <mxGeometry x="220" y="360" width="120" height="40" as="geometry" />
        </mxCell>
        <mxCell id="nq9fMI-_b_Ov7HE07HDS-66" value="est_nombre" style="ellipse;whiteSpace=wrap;html=1;align=center;" parent="1" vertex="1">
          <mxGeometry x="280" y="290" width="100" height="40" as="geometry" />
        </mxCell>
        <mxCell id="nq9fMI-_b_Ov7HE07HDS-67" value="&lt;b&gt;&lt;u&gt;est_id&lt;/u&gt;&lt;/b&gt;" style="ellipse;whiteSpace=wrap;html=1;align=center;" parent="1" vertex="1">
          <mxGeometry x="190" y="290" width="100" height="40" as="geometry" />
        </mxCell>
        <mxCell id="nq9fMI-_b_Ov7HE07HDS-83" style="edgeStyle=orthogonalEdgeStyle;rounded=0;orthogonalLoop=1;jettySize=auto;html=1;entryX=0.5;entryY=1;entryDx=0;entryDy=0;startArrow=none;startFill=0;endArrow=classic;endFill=1;curved=1;" parent="1" source="nq9fMI-_b_Ov7HE07HDS-79" target="nq9fMI-_b_Ov7HE07HDS-81" edge="1">
          <mxGeometry relative="1" as="geometry" />
        </mxCell>
        <mxCell id="nq9fMI-_b_Ov7HE07HDS-84" style="edgeStyle=orthogonalEdgeStyle;curved=1;rounded=0;orthogonalLoop=1;jettySize=auto;html=1;entryX=0.637;entryY=1.001;entryDx=0;entryDy=0;entryPerimeter=0;startArrow=none;startFill=0;endArrow=classic;endFill=1;" parent="1" source="nq9fMI-_b_Ov7HE07HDS-79" target="nq9fMI-_b_Ov7HE07HDS-80" edge="1">
          <mxGeometry relative="1" as="geometry" />
        </mxCell>
        <mxCell id="BSOJ2FzLmBQu7ZXfA576-5" style="edgeStyle=orthogonalEdgeStyle;rounded=0;orthogonalLoop=1;jettySize=auto;html=1;exitX=0;exitY=0.5;exitDx=0;exitDy=0;entryX=0;entryY=0.5;entryDx=0;entryDy=0;startArrow=ERmandOne;startFill=0;endArrow=ERoneToMany;endFill=0;" edge="1" parent="1" source="nq9fMI-_b_Ov7HE07HDS-79" target="nq9fMI-_b_Ov7HE07HDS-87">
          <mxGeometry relative="1" as="geometry" />
        </mxCell>
        <mxCell id="nq9fMI-_b_Ov7HE07HDS-79" value="universidad" style="rounded=1;arcSize=10;whiteSpace=wrap;html=1;align=center;" parent="1" vertex="1">
          <mxGeometry x="790" y="200" width="100" height="40" as="geometry" />
        </mxCell>
        <mxCell id="nq9fMI-_b_Ov7HE07HDS-80" value="uni_id" style="ellipse;whiteSpace=wrap;html=1;align=center;" parent="1" vertex="1">
          <mxGeometry x="740" y="120" width="100" height="40" as="geometry" />
        </mxCell>
        <mxCell id="nq9fMI-_b_Ov7HE07HDS-81" value="uni_nombre" style="ellipse;whiteSpace=wrap;html=1;align=center;" parent="1" vertex="1">
          <mxGeometry x="830" y="120" width="100" height="40" as="geometry" />
        </mxCell>
        <mxCell id="nq9fMI-_b_Ov7HE07HDS-85" style="edgeStyle=orthogonalEdgeStyle;rounded=0;orthogonalLoop=1;jettySize=auto;html=1;entryX=0.5;entryY=1;entryDx=0;entryDy=0;startArrow=none;startFill=0;endArrow=classic;endFill=1;curved=1;" parent="1" source="nq9fMI-_b_Ov7HE07HDS-87" target="nq9fMI-_b_Ov7HE07HDS-89" edge="1">
          <mxGeometry relative="1" as="geometry" />
        </mxCell>
        <mxCell id="nq9fMI-_b_Ov7HE07HDS-86" style="edgeStyle=orthogonalEdgeStyle;curved=1;rounded=0;orthogonalLoop=1;jettySize=auto;html=1;entryX=0.637;entryY=1.001;entryDx=0;entryDy=0;entryPerimeter=0;startArrow=none;startFill=0;endArrow=classic;endFill=1;" parent="1" source="nq9fMI-_b_Ov7HE07HDS-87" target="nq9fMI-_b_Ov7HE07HDS-88" edge="1">
          <mxGeometry relative="1" as="geometry" />
        </mxCell>
        <mxCell id="nq9fMI-_b_Ov7HE07HDS-92" style="edgeStyle=orthogonalEdgeStyle;curved=1;rounded=0;orthogonalLoop=1;jettySize=auto;html=1;entryX=0;entryY=1;entryDx=0;entryDy=0;startArrow=none;startFill=0;endArrow=classic;endFill=1;" parent="1" source="nq9fMI-_b_Ov7HE07HDS-87" target="nq9fMI-_b_Ov7HE07HDS-91" edge="1">
          <mxGeometry relative="1" as="geometry" />
        </mxCell>
        <mxCell id="nq9fMI-_b_Ov7HE07HDS-95" style="edgeStyle=orthogonalEdgeStyle;curved=1;rounded=0;orthogonalLoop=1;jettySize=auto;html=1;entryX=0.5;entryY=1;entryDx=0;entryDy=0;startArrow=none;startFill=0;endArrow=classic;endFill=1;" parent="1" source="nq9fMI-_b_Ov7HE07HDS-87" target="nq9fMI-_b_Ov7HE07HDS-94" edge="1">
          <mxGeometry relative="1" as="geometry" />
        </mxCell>
        <mxCell id="nq9fMI-_b_Ov7HE07HDS-97" style="edgeStyle=orthogonalEdgeStyle;curved=1;rounded=0;orthogonalLoop=1;jettySize=auto;html=1;startArrow=none;startFill=0;endArrow=classic;endFill=1;" parent="1" source="nq9fMI-_b_Ov7HE07HDS-87" target="nq9fMI-_b_Ov7HE07HDS-96" edge="1">
          <mxGeometry relative="1" as="geometry" />
        </mxCell>
        <mxCell id="BSOJ2FzLmBQu7ZXfA576-11" style="edgeStyle=orthogonalEdgeStyle;rounded=0;orthogonalLoop=1;jettySize=auto;html=1;entryX=0.5;entryY=1;entryDx=0;entryDy=0;startArrow=none;startFill=0;endArrow=classic;endFill=1;" edge="1" parent="1" source="nq9fMI-_b_Ov7HE07HDS-87" target="BSOJ2FzLmBQu7ZXfA576-10">
          <mxGeometry relative="1" as="geometry" />
        </mxCell>
        <mxCell id="nq9fMI-_b_Ov7HE07HDS-87" value="profesion" style="rounded=1;arcSize=10;whiteSpace=wrap;html=1;align=center;" parent="1" vertex="1">
          <mxGeometry x="900" y="370" width="100" height="40" as="geometry" />
        </mxCell>
        <mxCell id="nq9fMI-_b_Ov7HE07HDS-88" value="id" style="ellipse;whiteSpace=wrap;html=1;align=center;" parent="1" vertex="1">
          <mxGeometry x="850" y="290" width="100" height="40" as="geometry" />
        </mxCell>
        <mxCell id="nq9fMI-_b_Ov7HE07HDS-89" value="ingresp" style="ellipse;whiteSpace=wrap;html=1;align=center;" parent="1" vertex="1">
          <mxGeometry x="910" y="290" width="100" height="40" as="geometry" />
        </mxCell>
        <mxCell id="nq9fMI-_b_Ov7HE07HDS-91" value="egreso" style="ellipse;whiteSpace=wrap;html=1;align=center;" parent="1" vertex="1">
          <mxGeometry x="970" y="300" width="100" height="40" as="geometry" />
        </mxCell>
        <mxCell id="nq9fMI-_b_Ov7HE07HDS-94" value="resolucion" style="ellipse;whiteSpace=wrap;html=1;align=center;" parent="1" vertex="1">
          <mxGeometry x="860" y="250" width="100" height="40" as="geometry" />
        </mxCell>
        <mxCell id="nq9fMI-_b_Ov7HE07HDS-96" value="titulo" style="ellipse;whiteSpace=wrap;html=1;align=center;" parent="1" vertex="1">
          <mxGeometry x="930" y="250" width="100" height="40" as="geometry" />
        </mxCell>
        <mxCell id="BSOJ2FzLmBQu7ZXfA576-10" value="fecha" style="ellipse;whiteSpace=wrap;html=1;align=center;" vertex="1" parent="1">
          <mxGeometry x="900" y="210" width="100" height="40" as="geometry" />
        </mxCell>
        <mxCell id="BSOJ2FzLmBQu7ZXfA576-16" style="edgeStyle=orthogonalEdgeStyle;rounded=0;orthogonalLoop=1;jettySize=auto;html=1;entryX=0.5;entryY=1;entryDx=0;entryDy=0;startArrow=none;startFill=0;endArrow=classic;endFill=1;curved=1;" edge="1" parent="1" source="BSOJ2FzLmBQu7ZXfA576-18" target="BSOJ2FzLmBQu7ZXfA576-20">
          <mxGeometry relative="1" as="geometry" />
        </mxCell>
        <mxCell id="BSOJ2FzLmBQu7ZXfA576-17" style="edgeStyle=orthogonalEdgeStyle;curved=1;rounded=0;orthogonalLoop=1;jettySize=auto;html=1;entryX=0.637;entryY=1.001;entryDx=0;entryDy=0;entryPerimeter=0;startArrow=none;startFill=0;endArrow=classic;endFill=1;" edge="1" parent="1" source="BSOJ2FzLmBQu7ZXfA576-18" target="BSOJ2FzLmBQu7ZXfA576-19">
          <mxGeometry relative="1" as="geometry" />
        </mxCell>
        <mxCell id="BSOJ2FzLmBQu7ZXfA576-32" style="edgeStyle=orthogonalEdgeStyle;rounded=0;orthogonalLoop=1;jettySize=auto;html=1;entryX=1;entryY=0.5;entryDx=0;entryDy=0;startArrow=none;startFill=0;endArrow=classic;endFill=1;exitX=0.5;exitY=1;exitDx=0;exitDy=0;" edge="1" parent="1" source="BSOJ2FzLmBQu7ZXfA576-18" target="nq9fMI-_b_Ov7HE07HDS-87">
          <mxGeometry relative="1" as="geometry" />
        </mxCell>
        <mxCell id="BSOJ2FzLmBQu7ZXfA576-18" value="especializacion" style="rounded=1;arcSize=10;whiteSpace=wrap;html=1;align=center;" vertex="1" parent="1">
          <mxGeometry x="1050" y="180" width="100" height="40" as="geometry" />
        </mxCell>
        <mxCell id="BSOJ2FzLmBQu7ZXfA576-19" value="es_id" style="ellipse;whiteSpace=wrap;html=1;align=center;" vertex="1" parent="1">
          <mxGeometry x="1000" y="100" width="100" height="40" as="geometry" />
        </mxCell>
        <mxCell id="BSOJ2FzLmBQu7ZXfA576-20" value="es_nombre" style="ellipse;whiteSpace=wrap;html=1;align=center;" vertex="1" parent="1">
          <mxGeometry x="1090" y="100" width="100" height="40" as="geometry" />
        </mxCell>
      </root>
    </mxGraphModel>
  </diagram>
</mxfile>
